<svg width="220" height="220" viewBox="0 0 220 220" fill="none" xmlns="http://www.w3.org/2000/svg">
<circle cx="110" cy="110" r="102.5" transform="rotate(-90 110 110)" stroke="white" stroke-width="5"/>
<path d="M214.936 106.336C215.789 130.755 208.099 154.707 193.19 174.065C178.282 193.424 157.089 206.978 133.263 212.391C109.436 217.804 84.4672 214.738 62.6579 203.722C40.8485 192.705 23.564 174.427 13.7819 152.037C3.99982 129.646 2.33262 104.546 9.06752 81.0582C15.8024 57.5708 30.5177 37.1676 50.6784 23.3632C70.8392 9.55886 95.183 3.21776 119.516 5.43226C143.85 7.64676 166.649 18.2782 183.987 35.4952L110 110L214.936 106.336Z" stroke="url(#paint0_linear_90_1127)" stroke-width="10"/>
<circle cx="110" cy="110" r="97.5" fill="white" stroke="white" stroke-width="5"/>
<path d="M94.16 100.44C94.16 101.64 93.908 102.72 93.404 103.68C92.924 104.64 92.252 105.468 91.388 106.164C90.548 106.86 89.564 107.4 88.436 107.784C87.308 108.144 86.108 108.324 84.836 108.324C83.564 108.324 82.364 108.132 81.236 107.748C80.108 107.34 79.124 106.776 78.284 106.056C77.444 105.336 76.784 104.484 76.304 103.5C75.824 102.516 75.584 101.436 75.584 100.26C75.584 99.54 75.704 98.88 75.944 98.28C76.184 97.656 76.496 97.092 76.88 96.588C77.264 96.084 77.684 95.64 78.14 95.256C78.62 94.872 79.1 94.56 79.58 94.32C78.692 93.888 77.936 93.24 77.312 92.376C76.688 91.512 76.376 90.564 76.376 89.532C76.376 88.38 76.628 87.372 77.132 86.508C77.66 85.62 78.332 84.876 79.148 84.276C79.988 83.676 80.9 83.22 81.884 82.908C82.892 82.596 83.888 82.44 84.872 82.44C85.832 82.44 86.816 82.596 87.824 82.908C88.856 83.196 89.78 83.64 90.596 84.24C91.412 84.84 92.084 85.584 92.612 86.472C93.14 87.336 93.404 88.344 93.404 89.496C93.404 90 93.32 90.504 93.152 91.008C92.984 91.488 92.744 91.944 92.432 92.376C92.144 92.784 91.796 93.156 91.388 93.492C90.98 93.828 90.548 94.104 90.092 94.32C90.62 94.584 91.124 94.92 91.604 95.328C92.084 95.712 92.516 96.168 92.9 96.696C93.284 97.2 93.584 97.764 93.8 98.388C94.04 99.012 94.16 99.696 94.16 100.44ZM89.264 100.152C89.264 99.552 89.132 99.012 88.868 98.532C88.628 98.052 88.292 97.656 87.86 97.344C87.452 97.008 86.984 96.756 86.456 96.588C85.928 96.42 85.388 96.336 84.836 96.336C84.26 96.336 83.708 96.432 83.18 96.624C82.652 96.792 82.184 97.044 81.776 97.38C81.392 97.716 81.08 98.124 80.84 98.604C80.6 99.06 80.48 99.576 80.48 100.152C80.48 100.728 80.6 101.256 80.84 101.736C81.104 102.192 81.44 102.588 81.848 102.924C82.256 103.26 82.724 103.524 83.252 103.716C83.78 103.884 84.32 103.968 84.872 103.968C85.448 103.968 86 103.872 86.528 103.68C87.056 103.488 87.524 103.224 87.932 102.888C88.34 102.552 88.664 102.156 88.904 101.7C89.144 101.22 89.264 100.704 89.264 100.152ZM81.272 89.676C81.272 90.18 81.38 90.624 81.596 91.008C81.812 91.368 82.088 91.68 82.424 91.944C82.784 92.184 83.168 92.376 83.576 92.52C84.008 92.64 84.44 92.7 84.872 92.7C85.28 92.7 85.7 92.64 86.132 92.52C86.564 92.376 86.948 92.172 87.284 91.908C87.644 91.644 87.932 91.332 88.148 90.972C88.364 90.588 88.472 90.144 88.472 89.64C88.472 88.752 88.112 88.044 87.392 87.516C86.696 86.988 85.844 86.724 84.836 86.724C83.852 86.724 83.012 87 82.316 87.552C81.62 88.08 81.272 88.788 81.272 89.676ZM115.887 100.44C115.887 101.64 115.635 102.72 115.131 103.68C114.651 104.64 113.979 105.468 113.115 106.164C112.275 106.86 111.291 107.4 110.163 107.784C109.035 108.144 107.835 108.324 106.563 108.324C105.291 108.324 104.091 108.132 102.963 107.748C101.835 107.34 100.851 106.776 100.011 106.056C99.1706 105.336 98.5106 104.484 98.0306 103.5C97.5506 102.516 97.3106 101.436 97.3106 100.26C97.3106 99.54 97.4306 98.88 97.6706 98.28C97.9106 97.656 98.2226 97.092 98.6066 96.588C98.9906 96.084 99.4106 95.64 99.8666 95.256C100.347 94.872 100.827 94.56 101.307 94.32C100.419 93.888 99.6626 93.24 99.0386 92.376C98.4146 91.512 98.1026 90.564 98.1026 89.532C98.1026 88.38 98.3546 87.372 98.8586 86.508C99.3866 85.62 100.059 84.876 100.875 84.276C101.715 83.676 102.627 83.22 103.611 82.908C104.619 82.596 105.615 82.44 106.599 82.44C107.559 82.44 108.543 82.596 109.551 82.908C110.583 83.196 111.507 83.64 112.323 84.24C113.139 84.84 113.811 85.584 114.339 86.472C114.867 87.336 115.131 88.344 115.131 89.496C115.131 90 115.047 90.504 114.879 91.008C114.711 91.488 114.471 91.944 114.159 92.376C113.871 92.784 113.523 93.156 113.115 93.492C112.707 93.828 112.275 94.104 111.819 94.32C112.347 94.584 112.851 94.92 113.331 95.328C113.811 95.712 114.243 96.168 114.627 96.696C115.011 97.2 115.311 97.764 115.527 98.388C115.767 99.012 115.887 99.696 115.887 100.44ZM110.991 100.152C110.991 99.552 110.859 99.012 110.595 98.532C110.355 98.052 110.019 97.656 109.587 97.344C109.179 97.008 108.711 96.756 108.183 96.588C107.655 96.42 107.115 96.336 106.563 96.336C105.987 96.336 105.435 96.432 104.907 96.624C104.379 96.792 103.911 97.044 103.503 97.38C103.119 97.716 102.807 98.124 102.567 98.604C102.327 99.06 102.207 99.576 102.207 100.152C102.207 100.728 102.327 101.256 102.567 101.736C102.831 102.192 103.167 102.588 103.575 102.924C103.983 103.26 104.451 103.524 104.979 103.716C105.507 103.884 106.047 103.968 106.599 103.968C107.175 103.968 107.727 103.872 108.255 103.68C108.783 103.488 109.251 103.224 109.659 102.888C110.067 102.552 110.391 102.156 110.631 101.7C110.871 101.22 110.991 100.704 110.991 100.152ZM102.999 89.676C102.999 90.18 103.107 90.624 103.323 91.008C103.539 91.368 103.815 91.68 104.151 91.944C104.511 92.184 104.895 92.376 105.303 92.52C105.735 92.64 106.167 92.7 106.599 92.7C107.007 92.7 107.427 92.64 107.859 92.52C108.291 92.376 108.675 92.172 109.011 91.908C109.371 91.644 109.659 91.332 109.875 90.972C110.091 90.588 110.199 90.144 110.199 89.64C110.199 88.752 109.839 88.044 109.119 87.516C108.423 86.988 107.571 86.724 106.563 86.724C105.579 86.724 104.739 87 104.043 87.552C103.347 88.08 102.999 88.788 102.999 89.676ZM124.653 92.988C123.813 92.988 123.033 92.844 122.313 92.556C121.593 92.268 120.969 91.884 120.441 91.404C119.913 90.9 119.493 90.324 119.181 89.676C118.869 89.004 118.713 88.284 118.713 87.516C118.713 86.772 118.869 86.064 119.181 85.392C119.493 84.72 119.913 84.144 120.441 83.664C120.969 83.184 121.593 82.8 122.313 82.512C123.033 82.224 123.813 82.08 124.653 82.08C125.469 82.08 126.237 82.224 126.957 82.512C127.701 82.8 128.337 83.184 128.865 83.664C129.393 84.144 129.813 84.72 130.125 85.392C130.437 86.064 130.593 86.772 130.593 87.516C130.593 88.284 130.437 89.004 130.125 89.676C129.813 90.324 129.393 90.9 128.865 91.404C128.337 91.884 127.701 92.268 126.957 92.556C126.237 92.844 125.469 92.988 124.653 92.988ZM124.653 90.576C125.013 90.576 125.337 90.492 125.625 90.324C125.937 90.156 126.213 89.94 126.453 89.676C126.693 89.388 126.873 89.064 126.993 88.704C127.137 88.32 127.209 87.924 127.209 87.516C127.209 86.676 126.957 85.968 126.453 85.392C125.949 84.792 125.349 84.492 124.653 84.492C124.293 84.492 123.957 84.576 123.645 84.744C123.357 84.912 123.093 85.14 122.853 85.428C122.613 85.692 122.421 86.004 122.277 86.364C122.157 86.724 122.097 87.108 122.097 87.516C122.097 88.356 122.349 89.076 122.853 89.676C123.357 90.276 123.957 90.576 124.653 90.576ZM138.549 108.36C137.709 108.36 136.929 108.216 136.209 107.928C135.489 107.64 134.865 107.256 134.337 106.776C133.809 106.296 133.389 105.732 133.077 105.084C132.765 104.412 132.609 103.692 132.609 102.924C132.609 102.156 132.765 101.448 133.077 100.8C133.389 100.128 133.809 99.552 134.337 99.072C134.865 98.568 135.489 98.172 136.209 97.884C136.929 97.596 137.709 97.452 138.549 97.452C139.389 97.452 140.169 97.596 140.889 97.884C141.609 98.172 142.233 98.568 142.761 99.072C143.313 99.552 143.733 100.128 144.021 100.8C144.333 101.448 144.489 102.156 144.489 102.924C144.489 103.692 144.333 104.412 144.021 105.084C143.733 105.732 143.313 106.296 142.761 106.776C142.233 107.256 141.609 107.64 140.889 107.928C140.169 108.216 139.389 108.36 138.549 108.36ZM138.549 105.948C138.909 105.948 139.233 105.864 139.521 105.696C139.833 105.528 140.109 105.312 140.349 105.048C140.589 104.76 140.769 104.436 140.889 104.076C141.033 103.716 141.105 103.332 141.105 102.924C141.105 102.492 141.033 102.096 140.889 101.736C140.745 101.352 140.553 101.028 140.313 100.764C140.097 100.476 139.833 100.26 139.521 100.116C139.209 99.948 138.885 99.864 138.549 99.864C138.189 99.864 137.853 99.948 137.541 100.116C137.253 100.284 136.989 100.512 136.749 100.8C136.509 101.064 136.317 101.388 136.173 101.772C136.053 102.132 135.993 102.516 135.993 102.924C135.993 103.764 136.245 104.484 136.749 105.084C137.253 105.66 137.853 105.948 138.549 105.948ZM120.729 106.308L130.881 94.464L140.241 82.152L142.437 84.096L132.609 95.724L122.925 108.252L120.729 106.308Z" fill="black"/>
<path d="M62.024 127.083C61.832 129.339 61.584 131.267 61.28 132.867C60.992 134.467 60.624 135.779 60.176 136.803C59.744 137.811 59.216 138.555 58.592 139.035C57.984 139.499 57.264 139.731 56.432 139.731L56.144 138.123C56.464 138.107 56.768 138.043 57.056 137.931C57.36 137.819 57.648 137.619 57.92 137.331C58.192 137.027 58.448 136.619 58.688 136.107C58.928 135.579 59.152 134.907 59.36 134.091C59.568 133.259 59.752 132.259 59.912 131.091C60.088 129.923 60.24 128.539 60.368 126.939L60.728 122.571H69.392V139.611H67.736V124.059H62.264L62.024 127.083ZM75.0414 137.307L82.5054 127.107H83.8254V139.611H82.2174V129.603L74.8974 139.611H73.4334V127.107H75.0414V137.307ZM86.6079 133.323C86.6079 132.443 86.7599 131.611 87.0639 130.827C87.3679 130.043 87.7919 129.363 88.3359 128.787C88.8959 128.195 89.5599 127.731 90.3279 127.395C91.0959 127.059 91.9439 126.891 92.8719 126.891C94.0559 126.891 95.0879 127.163 95.9679 127.707C96.8479 128.235 97.5119 128.955 97.9599 129.867L96.3759 130.371C96.0239 129.731 95.5279 129.235 94.8879 128.883C94.2639 128.515 93.5679 128.331 92.7999 128.331C92.1599 128.331 91.5599 128.459 90.9999 128.715C90.4559 128.971 89.9759 129.323 89.5599 129.771C89.1599 130.203 88.8399 130.723 88.5999 131.331C88.3759 131.939 88.2639 132.603 88.2639 133.323C88.2639 134.027 88.3839 134.691 88.6239 135.315C88.8639 135.939 89.1919 136.483 89.6079 136.947C90.0239 137.395 90.5039 137.755 91.0479 138.027C91.6079 138.283 92.1999 138.411 92.8239 138.411C93.2239 138.411 93.6159 138.355 93.9999 138.243C94.3999 138.131 94.7679 137.979 95.1039 137.787C95.4399 137.579 95.7279 137.347 95.9679 137.091C96.2079 136.835 96.3759 136.563 96.4719 136.275L98.0799 136.755C97.9039 137.203 97.6479 137.619 97.3119 138.003C96.9759 138.371 96.5759 138.699 96.1119 138.987C95.6639 139.259 95.1599 139.467 94.5999 139.611C94.0559 139.771 93.4879 139.851 92.8959 139.851C91.9839 139.851 91.1439 139.683 90.3759 139.347C89.6079 138.995 88.9439 138.523 88.3839 137.931C87.8239 137.323 87.3839 136.627 87.0639 135.843C86.7599 135.059 86.6079 134.219 86.6079 133.323ZM105.324 139.611H103.74V128.523H99.3478V127.107H109.716V128.523H105.324V139.611ZM116.73 139.851C115.818 139.851 114.986 139.683 114.234 139.347C113.482 138.995 112.826 138.523 112.266 137.931C111.722 137.339 111.298 136.651 110.994 135.867C110.69 135.083 110.538 134.259 110.538 133.395C110.538 132.515 110.69 131.683 110.994 130.899C111.314 130.115 111.746 129.427 112.29 128.835C112.85 128.243 113.506 127.771 114.258 127.419C115.01 127.067 115.834 126.891 116.73 126.891C117.626 126.891 118.45 127.067 119.202 127.419C119.97 127.771 120.626 128.243 121.17 128.835C121.73 129.427 122.162 130.115 122.466 130.899C122.786 131.683 122.946 132.515 122.946 133.395C122.946 134.259 122.794 135.083 122.49 135.867C122.186 136.651 121.754 137.339 121.194 137.931C120.65 138.523 119.994 138.995 119.226 139.347C118.474 139.683 117.642 139.851 116.73 139.851ZM112.194 133.419C112.194 134.123 112.314 134.779 112.554 135.387C112.794 135.979 113.114 136.507 113.514 136.971C113.93 137.419 114.41 137.771 114.954 138.027C115.514 138.283 116.106 138.411 116.73 138.411C117.354 138.411 117.938 138.283 118.482 138.027C119.042 137.755 119.53 137.395 119.946 136.947C120.362 136.483 120.69 135.947 120.93 135.339C121.17 134.731 121.29 134.075 121.29 133.371C121.29 132.683 121.17 132.035 120.93 131.427C120.69 130.803 120.362 130.267 119.946 129.819C119.53 129.355 119.042 128.995 118.482 128.739C117.938 128.467 117.354 128.331 116.73 128.331C116.106 128.331 115.522 128.467 114.978 128.739C114.434 128.995 113.954 129.355 113.538 129.819C113.122 130.283 112.794 130.827 112.554 131.451C112.314 132.059 112.194 132.715 112.194 133.419ZM131.867 127.107C132.315 127.107 132.723 127.187 133.091 127.347C133.475 127.507 133.803 127.731 134.075 128.019C134.363 128.291 134.579 128.611 134.723 128.979C134.883 129.347 134.963 129.747 134.963 130.179C134.963 130.467 134.923 130.755 134.843 131.043C134.779 131.331 134.675 131.611 134.531 131.883C134.387 132.139 134.203 132.379 133.979 132.603C133.755 132.811 133.491 132.979 133.187 133.107C133.891 133.299 134.443 133.667 134.843 134.211C135.243 134.755 135.443 135.411 135.443 136.179C135.443 136.691 135.347 137.155 135.155 137.571C134.979 137.987 134.723 138.347 134.387 138.651C134.067 138.955 133.683 139.195 133.235 139.371C132.787 139.531 132.299 139.611 131.771 139.611H125.747V127.107H131.867ZM131.219 132.627C131.875 132.627 132.395 132.419 132.779 132.003C133.163 131.587 133.355 131.059 133.355 130.419C133.355 129.859 133.195 129.371 132.875 128.955C132.555 128.539 132.059 128.331 131.387 128.331H127.331V132.627H131.219ZM131.603 138.387C131.939 138.387 132.243 138.323 132.515 138.195C132.803 138.067 133.043 137.899 133.235 137.691C133.427 137.467 133.579 137.219 133.691 136.947C133.803 136.675 133.859 136.387 133.859 136.083C133.859 135.507 133.659 134.995 133.259 134.547C132.875 134.099 132.339 133.875 131.651 133.875H127.331V138.387H131.603ZM145.654 127.107H147.478L142.75 133.155L147.886 139.611H146.062L141.646 133.899H139.87V139.611H138.262V127.107H139.87V132.627H141.502L145.654 127.107ZM151.495 137.307L158.959 127.107H160.279V139.611H158.671V129.603L151.351 139.611H149.887V127.107H151.495V137.307Z" fill="black"/>
<defs>
<linearGradient id="paint0_linear_90_1127" x1="27.5" y1="26.5" x2="215" y2="110" gradientUnits="userSpaceOnUse">
<stop stop-color="#9BD00C"/>
<stop offset="1" stop-color="#E93EA3"/>
</linearGradient>
</defs>
</svg>
