<svg width="220" height="220" viewBox="0 0 220 220" fill="none" xmlns="http://www.w3.org/2000/svg">
<circle cx="110" cy="110" r="102.5" transform="rotate(-90 110 110)" stroke="white" stroke-width="5"/>
<path d="M214.936 106.336C215.749 129.624 208.793 152.521 195.162 171.421C181.531 190.32 162 204.149 139.646 210.728C117.292 217.307 93.3838 216.263 71.688 207.761C49.9921 199.258 31.741 183.78 19.8092 163.765C7.8774 143.749 2.94281 120.333 5.78265 97.2039C8.62249 74.0752 19.0754 52.5482 35.4951 36.0135C51.9147 19.4789 73.3681 8.87591 96.4764 5.87465C119.585 2.8734 143.035 7.64438 163.134 19.4362L110 110L214.936 106.336Z" stroke="url(#paint0_linear_90_1139)" stroke-width="10"/>
<circle cx="110" cy="110" r="97.5" fill="white" stroke="white" stroke-width="5"/>
<path d="M93.16 100.44C93.16 101.64 92.908 102.72 92.404 103.68C91.924 104.64 91.252 105.468 90.388 106.164C89.548 106.86 88.564 107.4 87.436 107.784C86.308 108.144 85.108 108.324 83.836 108.324C82.564 108.324 81.364 108.132 80.236 107.748C79.108 107.34 78.124 106.776 77.284 106.056C76.444 105.336 75.784 104.484 75.304 103.5C74.824 102.516 74.584 101.436 74.584 100.26C74.584 99.54 74.704 98.88 74.944 98.28C75.184 97.656 75.496 97.092 75.88 96.588C76.264 96.084 76.684 95.64 77.14 95.256C77.62 94.872 78.1 94.56 78.58 94.32C77.692 93.888 76.936 93.24 76.312 92.376C75.688 91.512 75.376 90.564 75.376 89.532C75.376 88.38 75.628 87.372 76.132 86.508C76.66 85.62 77.332 84.876 78.148 84.276C78.988 83.676 79.9 83.22 80.884 82.908C81.892 82.596 82.888 82.44 83.872 82.44C84.832 82.44 85.816 82.596 86.824 82.908C87.856 83.196 88.78 83.64 89.596 84.24C90.412 84.84 91.084 85.584 91.612 86.472C92.14 87.336 92.404 88.344 92.404 89.496C92.404 90 92.32 90.504 92.152 91.008C91.984 91.488 91.744 91.944 91.432 92.376C91.144 92.784 90.796 93.156 90.388 93.492C89.98 93.828 89.548 94.104 89.092 94.32C89.62 94.584 90.124 94.92 90.604 95.328C91.084 95.712 91.516 96.168 91.9 96.696C92.284 97.2 92.584 97.764 92.8 98.388C93.04 99.012 93.16 99.696 93.16 100.44ZM88.264 100.152C88.264 99.552 88.132 99.012 87.868 98.532C87.628 98.052 87.292 97.656 86.86 97.344C86.452 97.008 85.984 96.756 85.456 96.588C84.928 96.42 84.388 96.336 83.836 96.336C83.26 96.336 82.708 96.432 82.18 96.624C81.652 96.792 81.184 97.044 80.776 97.38C80.392 97.716 80.08 98.124 79.84 98.604C79.6 99.06 79.48 99.576 79.48 100.152C79.48 100.728 79.6 101.256 79.84 101.736C80.104 102.192 80.44 102.588 80.848 102.924C81.256 103.26 81.724 103.524 82.252 103.716C82.78 103.884 83.32 103.968 83.872 103.968C84.448 103.968 85 103.872 85.528 103.68C86.056 103.488 86.524 103.224 86.932 102.888C87.34 102.552 87.664 102.156 87.904 101.7C88.144 101.22 88.264 100.704 88.264 100.152ZM80.272 89.676C80.272 90.18 80.38 90.624 80.596 91.008C80.812 91.368 81.088 91.68 81.424 91.944C81.784 92.184 82.168 92.376 82.576 92.52C83.008 92.64 83.44 92.7 83.872 92.7C84.28 92.7 84.7 92.64 85.132 92.52C85.564 92.376 85.948 92.172 86.284 91.908C86.644 91.644 86.932 91.332 87.148 90.972C87.364 90.588 87.472 90.144 87.472 89.64C87.472 88.752 87.112 88.044 86.392 87.516C85.696 86.988 84.844 86.724 83.836 86.724C82.852 86.724 82.012 87 81.316 87.552C80.62 88.08 80.272 88.788 80.272 89.676ZM105.959 112.572V107.208H95.4466V102.924L107.507 87.444H110.783V102.888H113.951V107.208H110.783V112.572H105.959ZM100.271 102.888H106.499V94.752L100.271 102.888ZM122.493 92.988C121.653 92.988 120.873 92.844 120.153 92.556C119.433 92.268 118.809 91.884 118.281 91.404C117.753 90.9 117.333 90.324 117.021 89.676C116.709 89.004 116.553 88.284 116.553 87.516C116.553 86.772 116.709 86.064 117.021 85.392C117.333 84.72 117.753 84.144 118.281 83.664C118.809 83.184 119.433 82.8 120.153 82.512C120.873 82.224 121.653 82.08 122.493 82.08C123.309 82.08 124.077 82.224 124.797 82.512C125.541 82.8 126.177 83.184 126.705 83.664C127.233 84.144 127.653 84.72 127.965 85.392C128.277 86.064 128.433 86.772 128.433 87.516C128.433 88.284 128.277 89.004 127.965 89.676C127.653 90.324 127.233 90.9 126.705 91.404C126.177 91.884 125.541 92.268 124.797 92.556C124.077 92.844 123.309 92.988 122.493 92.988ZM122.493 90.576C122.853 90.576 123.177 90.492 123.465 90.324C123.777 90.156 124.053 89.94 124.293 89.676C124.533 89.388 124.713 89.064 124.833 88.704C124.977 88.32 125.049 87.924 125.049 87.516C125.049 86.676 124.797 85.968 124.293 85.392C123.789 84.792 123.189 84.492 122.493 84.492C122.133 84.492 121.797 84.576 121.485 84.744C121.197 84.912 120.933 85.14 120.693 85.428C120.453 85.692 120.261 86.004 120.117 86.364C119.997 86.724 119.937 87.108 119.937 87.516C119.937 88.356 120.189 89.076 120.693 89.676C121.197 90.276 121.797 90.576 122.493 90.576ZM136.389 108.36C135.549 108.36 134.769 108.216 134.049 107.928C133.329 107.64 132.705 107.256 132.177 106.776C131.649 106.296 131.229 105.732 130.917 105.084C130.605 104.412 130.449 103.692 130.449 102.924C130.449 102.156 130.605 101.448 130.917 100.8C131.229 100.128 131.649 99.552 132.177 99.072C132.705 98.568 133.329 98.172 134.049 97.884C134.769 97.596 135.549 97.452 136.389 97.452C137.229 97.452 138.009 97.596 138.729 97.884C139.449 98.172 140.073 98.568 140.601 99.072C141.153 99.552 141.573 100.128 141.861 100.8C142.173 101.448 142.329 102.156 142.329 102.924C142.329 103.692 142.173 104.412 141.861 105.084C141.573 105.732 141.153 106.296 140.601 106.776C140.073 107.256 139.449 107.64 138.729 107.928C138.009 108.216 137.229 108.36 136.389 108.36ZM136.389 105.948C136.749 105.948 137.073 105.864 137.361 105.696C137.673 105.528 137.949 105.312 138.189 105.048C138.429 104.76 138.609 104.436 138.729 104.076C138.873 103.716 138.945 103.332 138.945 102.924C138.945 102.492 138.873 102.096 138.729 101.736C138.585 101.352 138.393 101.028 138.153 100.764C137.937 100.476 137.673 100.26 137.361 100.116C137.049 99.948 136.725 99.864 136.389 99.864C136.029 99.864 135.693 99.948 135.381 100.116C135.093 100.284 134.829 100.512 134.589 100.8C134.349 101.064 134.157 101.388 134.013 101.772C133.893 102.132 133.833 102.516 133.833 102.924C133.833 103.764 134.085 104.484 134.589 105.084C135.093 105.66 135.693 105.948 136.389 105.948ZM118.569 106.308L128.721 94.464L138.081 82.152L140.277 84.096L130.449 95.724L120.765 108.252L118.569 106.308Z" fill="black"/>
<path d="M78.64 135.219C78.64 135.859 78.512 136.451 78.256 136.995C78 137.523 77.656 137.987 77.224 138.387C76.792 138.771 76.288 139.075 75.712 139.299C75.136 139.507 74.52 139.611 73.864 139.611H65.824V122.571H74.032C74.624 122.571 75.16 122.699 75.64 122.955C76.12 123.211 76.528 123.547 76.864 123.963C77.2 124.363 77.456 124.827 77.632 125.355C77.824 125.867 77.92 126.387 77.92 126.915C77.92 127.779 77.704 128.571 77.272 129.291C76.84 129.995 76.24 130.523 75.472 130.875C76.448 131.163 77.216 131.699 77.776 132.483C78.352 133.267 78.64 134.179 78.64 135.219ZM76.96 134.931C76.96 134.515 76.888 134.115 76.744 133.731C76.6 133.331 76.392 132.987 76.12 132.699C75.864 132.395 75.552 132.155 75.184 131.979C74.832 131.787 74.448 131.691 74.032 131.691H67.504V138.147H73.864C74.296 138.147 74.696 138.059 75.064 137.883C75.448 137.707 75.776 137.475 76.048 137.187C76.336 136.883 76.56 136.539 76.72 136.155C76.88 135.755 76.96 135.347 76.96 134.931ZM67.504 124.035V130.323H73.36C73.776 130.323 74.16 130.235 74.512 130.059C74.88 129.883 75.192 129.651 75.448 129.363C75.704 129.075 75.904 128.747 76.048 128.379C76.192 127.995 76.264 127.595 76.264 127.179C76.264 126.747 76.192 126.339 76.048 125.955C75.92 125.571 75.728 125.243 75.472 124.971C75.232 124.683 74.944 124.459 74.608 124.299C74.272 124.123 73.904 124.035 73.504 124.035H67.504ZM83.4633 137.307L90.9273 127.107H92.2473V139.611H90.6393V129.603L83.3193 139.611H81.8553V127.107H83.4633V137.307ZM95.1978 128.427C95.6458 127.915 96.1658 127.531 96.7578 127.275C97.3658 127.019 98.0218 126.891 98.7258 126.891C99.8298 126.891 100.702 127.163 101.342 127.707C101.982 128.251 102.302 128.979 102.302 129.891C102.302 130.627 102.102 131.243 101.702 131.739C101.318 132.235 100.79 132.539 100.118 132.651C101.014 132.779 101.718 133.147 102.23 133.755C102.742 134.347 102.998 135.091 102.998 135.987C102.998 136.563 102.894 137.091 102.686 137.571C102.478 138.035 102.182 138.435 101.798 138.771C101.414 139.107 100.95 139.371 100.406 139.563C99.8618 139.755 99.2618 139.851 98.6058 139.851C97.7418 139.851 97.0058 139.699 96.3978 139.395C95.7898 139.075 95.2538 138.619 94.7898 138.027L95.7018 136.899C96.0698 137.411 96.4858 137.795 96.9498 138.051C97.4298 138.291 98.0058 138.411 98.6778 138.411C99.5578 138.411 100.23 138.195 100.694 137.763C101.174 137.315 101.414 136.715 101.414 135.963C101.414 135.131 101.126 134.491 100.55 134.043C99.9738 133.595 99.1498 133.371 98.0778 133.371H97.2378V132.099H98.0778C98.9258 132.099 99.5898 131.923 100.07 131.571C100.55 131.203 100.79 130.683 100.79 130.011C100.79 129.451 100.598 129.011 100.214 128.691C99.8298 128.371 99.3018 128.211 98.6298 128.211C98.1498 128.211 97.6938 128.299 97.2617 128.475C96.8458 128.651 96.4298 128.947 96.0138 129.363L95.1978 128.427ZM107.346 137.307L114.81 127.107H116.13V139.611H114.522V129.603L107.202 139.611H105.738V127.107H107.346V137.307ZM124.457 139.611H122.873V128.523H118.481V127.107H128.849V128.523H124.457V139.611ZM138.56 127.107H140.384L135.656 133.155L140.792 139.611H138.968L134.552 133.899H132.776V139.611H131.168V127.107H132.776V132.627H134.408L138.56 127.107ZM144.401 137.307L151.865 127.107H153.185V139.611H151.577V129.603L144.257 139.611H142.793V127.107H144.401V137.307Z" fill="black"/>
<defs>
<linearGradient id="paint0_linear_90_1139" x1="29.5" y1="26.5" x2="215" y2="110" gradientUnits="userSpaceOnUse">
<stop stop-color="#9BD00C"/>
<stop offset="1" stop-color="#E93EA3"/>
</linearGradient>
</defs>
</svg>
