<svg width="220" height="221" viewBox="0 0 220 221" fill="none" xmlns="http://www.w3.org/2000/svg">
<circle cx="110" cy="111" r="102.5" transform="rotate(-90 110 111)" stroke="white" stroke-width="5"/>
<path d="M214.936 107.336C215.661 128.09 210.215 148.593 199.287 166.253C188.359 183.912 172.44 197.934 153.543 206.546C134.646 215.158 113.619 217.973 93.122 214.635C72.625 211.297 53.5782 201.955 38.3902 187.792C23.2021 173.629 12.555 155.28 7.79518 135.066C3.03536 114.852 4.37665 93.6803 11.6494 74.2284C18.9222 54.7764 31.7998 37.918 48.6538 25.7849C65.5078 13.6517 85.5812 6.78885 106.336 6.06409L110 111L214.936 107.336Z" stroke="url(#paint0_linear_90_1146)" stroke-width="10"/>
<circle cx="110" cy="111" r="97.5" fill="white" stroke="white" stroke-width="5"/>
<path d="M88.636 92.404H77.008V88.012H96.232L83.56 113.572H78.088L88.636 92.404ZM105.952 97.516C107.152 97.516 108.268 97.72 109.3 98.128C110.332 98.512 111.22 99.064 111.964 99.784C112.708 100.504 113.284 101.368 113.692 102.376C114.124 103.384 114.34 104.5 114.34 105.724C114.34 107.02 114.1 108.196 113.62 109.252C113.164 110.308 112.516 111.208 111.676 111.952C110.836 112.72 109.84 113.308 108.688 113.716C107.536 114.148 106.288 114.364 104.944 114.364C103.072 114.364 101.392 113.968 99.9037 113.176C98.4397 112.384 97.3237 111.304 96.5557 109.936L99.3277 107.056C99.9997 107.992 100.84 108.736 101.848 109.288C102.856 109.84 103.9 110.116 104.98 110.116C106.276 110.116 107.332 109.732 108.148 108.964C108.988 108.172 109.408 107.128 109.408 105.832C109.408 104.584 109.012 103.576 108.22 102.808C107.452 102.04 106.468 101.656 105.268 101.656C104.476 101.656 103.732 101.836 103.036 102.196C102.364 102.556 101.824 103.048 101.416 103.672H97.2037C97.2037 103.6 97.2517 103.336 97.3477 102.88C97.4437 102.4 97.5637 101.8 97.7077 101.08C97.8517 100.336 98.0077 99.52 98.1757 98.632C98.3437 97.72 98.5237 96.796 98.7157 95.86C99.1477 93.652 99.6277 91.18 100.156 88.444H112.756V92.836H103.648L102.604 98.56C102.892 98.248 103.312 97.996 103.864 97.804C104.44 97.612 105.136 97.516 105.952 97.516ZM122.645 93.988C121.805 93.988 121.025 93.844 120.305 93.556C119.585 93.268 118.961 92.884 118.433 92.404C117.905 91.9 117.485 91.324 117.173 90.676C116.861 90.004 116.705 89.284 116.705 88.516C116.705 87.772 116.861 87.064 117.173 86.392C117.485 85.72 117.905 85.144 118.433 84.664C118.961 84.184 119.585 83.8 120.305 83.512C121.025 83.224 121.805 83.08 122.645 83.08C123.461 83.08 124.229 83.224 124.949 83.512C125.693 83.8 126.329 84.184 126.857 84.664C127.385 85.144 127.805 85.72 128.117 86.392C128.429 87.064 128.585 87.772 128.585 88.516C128.585 89.284 128.429 90.004 128.117 90.676C127.805 91.324 127.385 91.9 126.857 92.404C126.329 92.884 125.693 93.268 124.949 93.556C124.229 93.844 123.461 93.988 122.645 93.988ZM122.645 91.576C123.005 91.576 123.329 91.492 123.617 91.324C123.929 91.156 124.205 90.94 124.445 90.676C124.685 90.388 124.865 90.064 124.985 89.704C125.129 89.32 125.201 88.924 125.201 88.516C125.201 87.676 124.949 86.968 124.445 86.392C123.941 85.792 123.341 85.492 122.645 85.492C122.285 85.492 121.949 85.576 121.637 85.744C121.349 85.912 121.085 86.14 120.845 86.428C120.605 86.692 120.413 87.004 120.269 87.364C120.149 87.724 120.089 88.108 120.089 88.516C120.089 89.356 120.341 90.076 120.845 90.676C121.349 91.276 121.949 91.576 122.645 91.576ZM136.541 109.36C135.701 109.36 134.921 109.216 134.201 108.928C133.481 108.64 132.857 108.256 132.329 107.776C131.801 107.296 131.381 106.732 131.069 106.084C130.757 105.412 130.601 104.692 130.601 103.924C130.601 103.156 130.757 102.448 131.069 101.8C131.381 101.128 131.801 100.552 132.329 100.072C132.857 99.568 133.481 99.172 134.201 98.884C134.921 98.596 135.701 98.452 136.541 98.452C137.381 98.452 138.161 98.596 138.881 98.884C139.601 99.172 140.225 99.568 140.753 100.072C141.305 100.552 141.725 101.128 142.013 101.8C142.325 102.448 142.481 103.156 142.481 103.924C142.481 104.692 142.325 105.412 142.013 106.084C141.725 106.732 141.305 107.296 140.753 107.776C140.225 108.256 139.601 108.64 138.881 108.928C138.161 109.216 137.381 109.36 136.541 109.36ZM136.541 106.948C136.901 106.948 137.225 106.864 137.513 106.696C137.825 106.528 138.101 106.312 138.341 106.048C138.581 105.76 138.761 105.436 138.881 105.076C139.025 104.716 139.097 104.332 139.097 103.924C139.097 103.492 139.025 103.096 138.881 102.736C138.737 102.352 138.545 102.028 138.305 101.764C138.089 101.476 137.825 101.26 137.513 101.116C137.201 100.948 136.877 100.864 136.541 100.864C136.181 100.864 135.845 100.948 135.533 101.116C135.245 101.284 134.981 101.512 134.741 101.8C134.501 102.064 134.309 102.388 134.165 102.772C134.045 103.132 133.985 103.516 133.985 103.924C133.985 104.764 134.237 105.484 134.741 106.084C135.245 106.66 135.845 106.948 136.541 106.948ZM118.721 107.308L128.873 95.464L138.233 83.152L140.429 85.096L130.601 96.724L120.917 109.252L118.721 107.308Z" fill="black"/>
<path d="M71.184 123.571H84.336V140.611H82.656V125.059H72.84V140.611H71.184V123.571ZM91.3112 140.851C90.7192 140.851 90.1672 140.755 89.6552 140.563C89.1592 140.355 88.7192 140.075 88.3352 139.723C87.9672 139.371 87.6792 138.963 87.4712 138.499C87.2632 138.019 87.1592 137.507 87.1592 136.963C87.1592 136.419 87.2872 135.915 87.5432 135.451C87.7992 134.987 88.1592 134.587 88.6232 134.251C89.0872 133.915 89.6392 133.659 90.2792 133.483C90.9192 133.291 91.6232 133.195 92.3912 133.195C93.0312 133.195 93.6792 133.251 94.3352 133.363C94.9912 133.475 95.5752 133.635 96.0872 133.843V132.715C96.0872 131.611 95.7752 130.739 95.1512 130.099C94.5272 129.443 93.6632 129.115 92.5592 129.115C91.9192 129.115 91.2632 129.243 90.5912 129.499C89.9192 129.755 89.2392 130.123 88.5512 130.603L87.9752 129.523C89.5912 128.435 91.1592 127.891 92.6792 127.891C94.2472 127.891 95.4792 128.331 96.3752 129.211C97.2712 130.091 97.7192 131.307 97.7192 132.859V138.499C97.7192 138.947 97.9192 139.171 98.3192 139.171V140.611C98.0472 140.659 97.8392 140.683 97.6952 140.683C97.2792 140.683 96.9512 140.579 96.7112 140.371C96.4872 140.163 96.3672 139.875 96.3512 139.507L96.3032 138.523C95.7272 139.275 94.9992 139.851 94.1192 140.251C93.2552 140.651 92.3192 140.851 91.3112 140.851ZM91.6952 139.603C92.5432 139.603 93.3192 139.443 94.0232 139.123C94.7432 138.803 95.2872 138.379 95.6552 137.851C95.7992 137.707 95.9032 137.555 95.9672 137.395C96.0472 137.219 96.0872 137.059 96.0872 136.915V134.875C95.5432 134.667 94.9752 134.507 94.3832 134.395C93.8072 134.283 93.2152 134.227 92.6072 134.227C91.4552 134.227 90.5192 134.467 89.7992 134.947C89.0792 135.427 88.7192 136.059 88.7192 136.843C88.7192 137.227 88.7912 137.587 88.9352 137.923C89.0952 138.259 89.3032 138.555 89.5592 138.811C89.8312 139.051 90.1512 139.243 90.5192 139.387C90.8872 139.531 91.2792 139.603 91.6952 139.603ZM108.685 128.107H110.509L105.781 134.155L110.917 140.611H109.093L104.677 134.899H102.901V140.611H101.293V128.107H102.901V133.627H104.533L108.685 128.107ZM117.825 140.851C116.913 140.851 116.073 140.683 115.305 140.347C114.553 139.995 113.897 139.523 113.337 138.931C112.777 138.323 112.337 137.627 112.017 136.843C111.713 136.059 111.561 135.219 111.561 134.323C111.561 133.443 111.713 132.619 112.017 131.851C112.337 131.067 112.769 130.387 113.313 129.811C113.873 129.219 114.537 128.755 115.305 128.419C116.073 128.067 116.905 127.891 117.801 127.891C118.713 127.891 119.545 128.067 120.297 128.419C121.065 128.755 121.721 129.219 122.265 129.811C122.809 130.403 123.233 131.083 123.537 131.851C123.841 132.619 123.993 133.435 123.993 134.299C123.993 134.427 123.993 134.555 123.993 134.683C123.993 134.811 123.985 134.899 123.969 134.947H113.265C113.313 135.619 113.465 136.243 113.721 136.819C113.993 137.379 114.337 137.867 114.753 138.283C115.169 138.699 115.641 139.027 116.169 139.267C116.713 139.491 117.289 139.603 117.897 139.603C118.297 139.603 118.697 139.547 119.097 139.435C119.497 139.323 119.865 139.171 120.201 138.979C120.537 138.787 120.841 138.555 121.113 138.283C121.385 137.995 121.593 137.683 121.737 137.347L123.153 137.731C122.961 138.195 122.689 138.619 122.337 139.003C121.985 139.371 121.577 139.699 121.113 139.987C120.649 140.259 120.137 140.467 119.577 140.611C119.017 140.771 118.433 140.851 117.825 140.851ZM122.433 133.699C122.385 133.027 122.225 132.419 121.953 131.875C121.697 131.315 121.361 130.835 120.945 130.435C120.545 130.035 120.073 129.723 119.529 129.499C119.001 129.275 118.433 129.163 117.825 129.163C117.217 129.163 116.641 129.275 116.097 129.499C115.553 129.723 115.073 130.035 114.657 130.435C114.257 130.835 113.929 131.315 113.673 131.875C113.433 132.435 113.289 133.043 113.241 133.699H122.433ZM130.652 140.611H129.068V129.523H124.676V128.107H135.044V129.523H130.652V140.611ZM137.363 128.107H138.971V132.547H141.683C142.259 132.547 142.803 132.635 143.315 132.811C143.827 132.987 144.275 133.243 144.659 133.579C145.043 133.915 145.347 134.339 145.571 134.851C145.795 135.347 145.907 135.923 145.907 136.579C145.907 137.235 145.795 137.819 145.571 138.331C145.347 138.827 145.043 139.243 144.659 139.579C144.275 139.915 143.827 140.171 143.315 140.347C142.803 140.523 142.259 140.611 141.683 140.611H137.363V128.107ZM147.467 128.107H149.051V140.611H147.467V128.107ZM141.683 139.219C142.515 139.219 143.155 138.987 143.603 138.523C144.067 138.043 144.299 137.395 144.299 136.579C144.299 135.763 144.067 135.123 143.603 134.659C143.139 134.179 142.499 133.939 141.683 133.939H138.971V139.219H141.683Z" fill="black"/>
<defs>
<linearGradient id="paint0_linear_90_1146" x1="26" y1="27.5" x2="215" y2="111" gradientUnits="userSpaceOnUse">
<stop stop-color="#9BD00C"/>
<stop offset="1" stop-color="#E93EA3"/>
</linearGradient>
</defs>
</svg>
