<svg width="220" height="215" viewBox="0 0 220 215" fill="none" xmlns="http://www.w3.org/2000/svg">
<circle cx="110" cy="105" r="102.5" transform="rotate(-90 110 105)" stroke="white" stroke-width="5"/>
<path d="M214.936 101.336C215.602 120.408 211.057 139.302 201.791 155.985C192.524 172.669 178.885 186.511 162.341 196.024C145.797 205.538 126.973 210.362 107.893 209.979C88.8122 209.596 70.197 204.02 54.048 193.85C37.899 183.681 24.827 169.302 16.2372 152.26C7.64741 135.219 3.86465 116.158 5.29556 97.1274C6.72647 78.0968 13.3169 59.8161 24.3585 44.2503C35.4001 28.6846 50.4752 16.4224 67.9633 8.78205L110 105L214.936 101.336Z" stroke="url(#paint0_linear_90_1192)" stroke-width="10"/>
<circle cx="110" cy="105" r="97.5" fill="white" stroke="white" stroke-width="5"/>
<path d="M94.412 94.468C94.412 95.716 94.172 96.88 93.692 97.96C93.212 99.04 92.552 99.988 91.712 100.804C90.872 101.596 89.876 102.22 88.724 102.676C87.596 103.132 86.372 103.36 85.052 103.36C83.612 103.36 82.304 103.096 81.128 102.568C79.976 102.04 78.992 101.272 78.176 100.264C77.36 99.256 76.736 98.032 76.304 96.592C75.872 95.128 75.656 93.472 75.656 91.624C75.656 89.296 75.884 87.244 76.34 85.468C76.796 83.668 77.456 82.168 78.32 80.968C79.184 79.744 80.228 78.82 81.452 78.196C82.676 77.572 84.044 77.26 85.556 77.26C87.164 77.26 88.64 77.608 89.984 78.304C91.352 79 92.504 79.996 93.44 81.292L90.668 84.316C90.092 83.404 89.348 82.696 88.436 82.192C87.524 81.688 86.54 81.436 85.484 81.436C83.876 81.436 82.592 82.072 81.632 83.344C80.672 84.616 80.168 86.416 80.12 88.744C80.624 87.88 81.332 87.196 82.244 86.692C83.18 86.188 84.26 85.936 85.484 85.936C86.732 85.936 87.896 86.152 88.976 86.584C90.08 87.016 91.028 87.616 91.82 88.384C92.636 89.152 93.272 90.064 93.728 91.12C94.184 92.152 94.412 93.268 94.412 94.468ZM85.088 99.292C85.712 99.292 86.312 99.172 86.888 98.932C87.464 98.668 87.968 98.32 88.4 97.888C88.832 97.432 89.168 96.916 89.408 96.34C89.672 95.74 89.804 95.116 89.804 94.468C89.804 93.82 89.672 93.22 89.408 92.668C89.168 92.092 88.832 91.588 88.4 91.156C87.968 90.724 87.464 90.388 86.888 90.148C86.336 89.908 85.736 89.788 85.088 89.788C84.44 89.788 83.828 89.908 83.252 90.148C82.676 90.388 82.172 90.724 81.74 91.156C81.308 91.588 80.972 92.092 80.732 92.668C80.492 93.22 80.372 93.82 80.372 94.468C80.372 95.116 80.492 95.74 80.732 96.34C80.996 96.916 81.344 97.42 81.776 97.852C82.208 98.284 82.7 98.632 83.252 98.896C83.828 99.16 84.44 99.292 85.088 99.292ZM97.0192 91.336C97.0192 90.088 97.2592 88.924 97.7392 87.844C98.2192 86.764 98.8672 85.828 99.6832 85.036C100.523 84.22 101.507 83.584 102.635 83.128C103.787 82.672 105.023 82.444 106.343 82.444C107.783 82.444 109.079 82.708 110.231 83.236C111.407 83.764 112.403 84.532 113.219 85.54C114.035 86.548 114.659 87.784 115.091 89.248C115.547 90.688 115.775 92.332 115.775 94.18C115.775 96.508 115.535 98.572 115.055 100.372C114.599 102.148 113.939 103.636 113.075 104.836C112.235 106.06 111.203 106.984 109.979 107.608C108.755 108.232 107.387 108.544 105.875 108.544C104.267 108.544 102.779 108.196 101.411 107.5C100.043 106.804 98.8912 105.808 97.9552 104.512L100.727 101.488C101.303 102.4 102.047 103.108 102.959 103.612C103.871 104.116 104.867 104.368 105.947 104.368C107.555 104.368 108.827 103.732 109.763 102.46C110.723 101.188 111.227 99.388 111.275 97.06C110.795 97.924 110.087 98.608 109.151 99.112C108.215 99.616 107.135 99.868 105.911 99.868C104.639 99.868 103.463 99.652 102.383 99.22C101.303 98.788 100.367 98.188 99.5752 97.42C98.7832 96.652 98.1592 95.752 97.7032 94.72C97.2472 93.664 97.0192 92.536 97.0192 91.336ZM106.343 86.512C105.695 86.512 105.083 86.644 104.507 86.908C103.955 87.148 103.463 87.496 103.031 87.952C102.599 88.384 102.251 88.9 101.987 89.5C101.747 90.076 101.627 90.688 101.627 91.336C101.627 91.984 101.747 92.596 101.987 93.172C102.251 93.724 102.587 94.216 102.995 94.648C103.427 95.08 103.931 95.416 104.507 95.656C105.083 95.896 105.695 96.016 106.343 96.016C106.991 96.016 107.603 95.896 108.179 95.656C108.755 95.416 109.247 95.08 109.655 94.648C110.087 94.216 110.423 93.724 110.663 93.172C110.927 92.596 111.059 91.984 111.059 91.336C111.059 90.688 110.927 90.076 110.663 89.5C110.423 88.9 110.087 88.384 109.655 87.952C109.223 87.52 108.719 87.172 108.143 86.908C107.591 86.644 106.991 86.512 106.343 86.512ZM124.266 87.988C123.426 87.988 122.646 87.844 121.926 87.556C121.206 87.268 120.582 86.884 120.054 86.404C119.526 85.9 119.106 85.324 118.794 84.676C118.482 84.004 118.326 83.284 118.326 82.516C118.326 81.772 118.482 81.064 118.794 80.392C119.106 79.72 119.526 79.144 120.054 78.664C120.582 78.184 121.206 77.8 121.926 77.512C122.646 77.224 123.426 77.08 124.266 77.08C125.082 77.08 125.85 77.224 126.57 77.512C127.314 77.8 127.95 78.184 128.478 78.664C129.006 79.144 129.426 79.72 129.738 80.392C130.05 81.064 130.206 81.772 130.206 82.516C130.206 83.284 130.05 84.004 129.738 84.676C129.426 85.324 129.006 85.9 128.478 86.404C127.95 86.884 127.314 87.268 126.57 87.556C125.85 87.844 125.082 87.988 124.266 87.988ZM124.266 85.576C124.626 85.576 124.95 85.492 125.238 85.324C125.55 85.156 125.826 84.94 126.066 84.676C126.306 84.388 126.486 84.064 126.606 83.704C126.75 83.32 126.822 82.924 126.822 82.516C126.822 81.676 126.57 80.968 126.066 80.392C125.562 79.792 124.962 79.492 124.266 79.492C123.906 79.492 123.57 79.576 123.258 79.744C122.97 79.912 122.706 80.14 122.466 80.428C122.226 80.692 122.034 81.004 121.89 81.364C121.77 81.724 121.71 82.108 121.71 82.516C121.71 83.356 121.962 84.076 122.466 84.676C122.97 85.276 123.57 85.576 124.266 85.576ZM138.162 103.36C137.322 103.36 136.542 103.216 135.822 102.928C135.102 102.64 134.478 102.256 133.95 101.776C133.422 101.296 133.002 100.732 132.69 100.084C132.378 99.412 132.222 98.692 132.222 97.924C132.222 97.156 132.378 96.448 132.69 95.8C133.002 95.128 133.422 94.552 133.95 94.072C134.478 93.568 135.102 93.172 135.822 92.884C136.542 92.596 137.322 92.452 138.162 92.452C139.002 92.452 139.782 92.596 140.502 92.884C141.222 93.172 141.846 93.568 142.374 94.072C142.926 94.552 143.346 95.128 143.634 95.8C143.946 96.448 144.102 97.156 144.102 97.924C144.102 98.692 143.946 99.412 143.634 100.084C143.346 100.732 142.926 101.296 142.374 101.776C141.846 102.256 141.222 102.64 140.502 102.928C139.782 103.216 139.002 103.36 138.162 103.36ZM138.162 100.948C138.522 100.948 138.846 100.864 139.134 100.696C139.446 100.528 139.722 100.312 139.962 100.048C140.202 99.76 140.382 99.436 140.502 99.076C140.646 98.716 140.718 98.332 140.718 97.924C140.718 97.492 140.646 97.096 140.502 96.736C140.358 96.352 140.166 96.028 139.926 95.764C139.71 95.476 139.446 95.26 139.134 95.116C138.822 94.948 138.498 94.864 138.162 94.864C137.802 94.864 137.466 94.948 137.154 95.116C136.866 95.284 136.602 95.512 136.362 95.8C136.122 96.064 135.93 96.388 135.786 96.772C135.666 97.132 135.606 97.516 135.606 97.924C135.606 98.764 135.858 99.484 136.362 100.084C136.866 100.66 137.466 100.948 138.162 100.948ZM120.342 101.308L130.494 89.464L139.854 77.152L142.05 79.096L132.222 90.724L122.538 103.252L120.342 101.308Z" fill="black"/>
<path d="M71.184 117.571H82.8V119.059H72.84V124.795H78.72C79.472 124.795 80.16 124.907 80.784 125.131C81.408 125.339 81.944 125.651 82.392 126.067C82.84 126.483 83.184 126.995 83.424 127.603C83.68 128.211 83.808 128.899 83.808 129.667C83.808 130.435 83.68 131.123 83.424 131.731C83.184 132.339 82.84 132.859 82.392 133.291C81.96 133.723 81.432 134.051 80.808 134.275C80.184 134.499 79.496 134.611 78.744 134.611H71.184V117.571ZM78.744 133.147C79.32 133.147 79.816 133.059 80.232 132.883C80.664 132.707 81.016 132.467 81.288 132.163C81.576 131.843 81.784 131.475 81.912 131.059C82.056 130.627 82.128 130.163 82.128 129.667C82.128 129.171 82.064 128.715 81.936 128.299C81.808 127.883 81.608 127.523 81.336 127.219C81.064 126.915 80.712 126.683 80.28 126.523C79.848 126.347 79.328 126.259 78.72 126.259H72.84V133.147H78.744ZM84.8237 133.243C85.2717 133.211 85.6637 133.091 85.9997 132.883C86.3357 132.659 86.6237 132.267 86.8637 131.707C87.1197 131.131 87.3357 130.347 87.5117 129.355C87.7037 128.363 87.8877 127.075 88.0637 125.491L88.4237 122.107H95.7677V134.611H94.1597V123.403H89.9357L89.5997 126.187C89.3917 127.851 89.1597 129.227 88.9037 130.315C88.6477 131.387 88.3437 132.251 87.9917 132.907C87.6557 133.547 87.2477 134.003 86.7677 134.275C86.2877 134.531 85.7277 134.675 85.0877 134.707L84.8237 133.243ZM102.538 134.851C101.946 134.851 101.394 134.755 100.882 134.563C100.386 134.355 99.9458 134.075 99.5618 133.723C99.1938 133.371 98.9058 132.963 98.6978 132.499C98.4898 132.019 98.3857 131.507 98.3857 130.963C98.3857 130.419 98.5138 129.915 98.7698 129.451C99.0258 128.987 99.3858 128.587 99.8498 128.251C100.314 127.915 100.866 127.659 101.506 127.483C102.146 127.291 102.85 127.195 103.618 127.195C104.258 127.195 104.906 127.251 105.562 127.363C106.218 127.475 106.802 127.635 107.314 127.843V126.715C107.314 125.611 107.002 124.739 106.378 124.099C105.754 123.443 104.89 123.115 103.786 123.115C103.146 123.115 102.49 123.243 101.818 123.499C101.146 123.755 100.466 124.123 99.7778 124.603L99.2018 123.523C100.818 122.435 102.386 121.891 103.906 121.891C105.474 121.891 106.706 122.331 107.602 123.211C108.498 124.091 108.946 125.307 108.946 126.859V132.499C108.946 132.947 109.146 133.171 109.546 133.171V134.611C109.274 134.659 109.066 134.683 108.922 134.683C108.506 134.683 108.178 134.579 107.938 134.371C107.714 134.163 107.594 133.875 107.578 133.507L107.53 132.523C106.954 133.275 106.226 133.851 105.346 134.251C104.482 134.651 103.546 134.851 102.538 134.851ZM102.922 133.603C103.77 133.603 104.546 133.443 105.25 133.123C105.97 132.803 106.514 132.379 106.882 131.851C107.026 131.707 107.13 131.555 107.194 131.395C107.274 131.219 107.314 131.059 107.314 130.915V128.875C106.77 128.667 106.202 128.507 105.61 128.395C105.034 128.283 104.442 128.227 103.834 128.227C102.682 128.227 101.746 128.467 101.026 128.947C100.306 129.427 99.9458 130.059 99.9458 130.843C99.9458 131.227 100.018 131.587 100.162 131.923C100.322 132.259 100.53 132.555 100.786 132.811C101.058 133.051 101.378 133.243 101.746 133.387C102.114 133.531 102.506 133.603 102.922 133.603ZM114.127 127.507H121.135V122.107H122.743V134.611H121.135V128.875H114.127V134.611H112.519V122.107H114.127V127.507ZM133.786 122.107H135.61L130.882 128.155L136.018 134.611H134.194L129.778 128.899H128.002V134.611H126.394V122.107H128.002V127.627H129.634L133.786 122.107ZM139.627 132.307L147.091 122.107H148.411V134.611H146.803V124.603L139.483 134.611H138.019V122.107H139.627V132.307Z" fill="black"/>
<defs>
<linearGradient id="paint0_linear_90_1192" x1="27.5" y1="28.5" x2="215" y2="105" gradientUnits="userSpaceOnUse">
<stop stop-color="#9BD00C"/>
<stop offset="1" stop-color="#E93EA3"/>
</linearGradient>
</defs>
</svg>
